<svg width="110" height="34" viewBox="0 0 110 34" fill="none" xmlns="http://www.w3.org/2000/svg">
<path d="M0 0H109.5L102 34H0V0Z" fill="#E93475"/>
<path d="M26.388 14V6.86H30.708V14H32.076V5.6H25.02V14H26.388ZM33.3971 11.12C33.3971 13.112 34.9091 14.156 36.5171 14.156C38.1371 14.156 39.6371 13.112 39.6371 11.12C39.6371 9.128 38.1371 8.084 36.5171 8.084C34.9091 8.084 33.3971 9.128 33.3971 11.12ZM38.3291 11.12C38.3291 12.248 37.5851 12.98 36.5171 12.98C35.4371 12.98 34.6931 12.248 34.6931 11.12C34.6931 9.992 35.4371 9.26 36.5171 9.26C37.5851 9.26 38.3291 9.992 38.3291 11.12ZM40.5221 11.168C40.5221 13.22 42.0941 14.156 43.6301 14.156C44.3621 14.156 44.9861 14.024 45.5381 13.76V12.572C45.0821 12.836 44.4701 13.016 43.8581 13.016C42.8261 13.016 41.8301 12.428 41.8301 11.12C41.8301 9.764 42.8621 9.224 43.8821 9.224C44.4701 9.224 45.0581 9.404 45.4781 9.704V8.528C44.9741 8.228 44.3501 8.084 43.7021 8.084C42.1661 8.084 40.5221 9.02 40.5221 11.168ZM49.1155 9.332H51.0595V14H52.3435V8.24H47.9035C47.7955 11.096 47.5315 13.016 46.5595 13.016C46.4395 13.016 46.3195 12.992 46.1875 12.944V13.952C46.4755 14.06 46.7395 14.108 46.9795 14.108C48.5155 14.108 48.9475 12.116 49.1155 9.332ZM53.5885 11.12C53.5885 13.148 55.0885 14.156 56.8525 14.156C57.6565 14.156 58.3885 14.012 58.9165 13.76V12.656C58.4245 12.896 57.7885 13.064 57.0925 13.064C56.0365 13.064 55.0285 12.632 54.8845 11.6H59.2165C59.5885 9.932 58.7965 8.084 56.5045 8.084C55.1725 8.084 53.5885 9.032 53.5885 11.12ZM58.0645 10.64H54.8725C54.9205 9.668 55.7005 9.152 56.5645 9.152C57.8245 9.152 58.1365 10.136 58.0645 10.64ZM61.125 15.548V14H65.757V15.548H66.969V12.944H66.117V8.24H61.617C61.641 10.244 61.401 11.708 60.705 12.944H59.913V15.548H61.125ZM62.817 9.296H64.821V12.944H62.049C62.529 11.924 62.769 10.844 62.817 9.296ZM69.4239 14V11.684H72.3039V14H73.5879V8.24H72.3039V10.556H69.4239V8.24H68.1399V14H69.4239ZM76.2986 14L79.3826 10.232V14H80.6666V8.24H79.5626L76.4786 12.008V8.24H75.1946V14H76.2986ZM86.7608 6.944V5.9C86.1488 6.284 85.6088 6.404 85.0088 6.404C84.4088 6.404 83.8688 6.284 83.2568 5.9V6.944C83.7848 7.304 84.3608 7.436 85.0088 7.436C85.6568 7.436 86.2328 7.304 86.7608 6.944ZM83.3768 14L86.4608 10.232V14H87.7448V8.24H86.6408L83.5568 12.008V8.24H82.2728V14H83.3768ZM25.944 21.14V20.24H24.804V28.64H26.088V25.256C26.484 25.712 27.156 26.156 28.164 26.156C29.892 26.156 31.02 24.776 31.02 23.12C31.02 21.464 29.892 20.084 28.164 20.084C27.084 20.084 26.4 20.588 25.944 21.14ZM29.712 23.12C29.712 24.248 28.968 25.028 27.924 25.028C27.036 25.028 26.364 24.452 26.088 23.816V22.412C26.364 21.788 27.036 21.212 27.924 21.212C28.968 21.212 29.712 21.992 29.712 23.12ZM37.1768 24.668V22.604C37.1768 20.864 36.1448 20.084 34.5128 20.084C33.5888 20.084 32.7608 20.312 32.3048 20.468V21.644C32.8208 21.416 33.5288 21.2 34.3808 21.2C35.3648 21.2 35.8928 21.704 35.8928 22.424V22.628C35.4368 22.532 34.8848 22.46 34.3928 22.46C33.1928 22.46 31.8248 22.916 31.8248 24.392C31.8248 25.58 32.7968 26.156 33.8408 26.156C34.7408 26.156 35.4488 25.868 36.0128 25.412C36.2168 25.88 36.6368 26.084 37.1648 26.084C37.4528 26.084 37.7408 26.036 37.9808 25.94V25.016C37.8608 25.052 37.7288 25.088 37.5968 25.088C37.3688 25.088 37.1768 24.992 37.1768 24.668ZM34.6448 23.36C35.0528 23.36 35.5448 23.432 35.8928 23.504V24.476C35.4368 24.932 34.8368 25.16 34.2248 25.16C33.6488 25.16 33.1448 24.872 33.1448 24.308C33.1448 23.588 33.9128 23.36 34.6448 23.36ZM43.4605 24.428C43.4605 23.708 42.9805 23.228 42.3205 23.048C42.9205 22.892 43.3405 22.448 43.3405 21.764C43.3405 20.828 42.5965 20.072 40.8205 20.072C40.0285 20.072 39.2605 20.264 38.7085 20.528V21.632C39.2005 21.368 39.9925 21.164 40.6645 21.164C41.4925 21.164 42.0445 21.416 42.0445 21.932C42.0445 22.412 41.5765 22.58 40.9645 22.58H39.7885V23.564H40.9645C41.5405 23.564 42.1645 23.66 42.1645 24.272C42.1645 24.908 41.4445 25.064 40.5925 25.064C39.8965 25.064 39.0685 24.848 38.6005 24.584V25.688C39.1285 25.964 39.8965 26.156 40.7605 26.156C42.5365 26.156 43.4605 25.436 43.4605 24.428ZM45.9853 26V22.1L47.6173 24.62H48.3853L50.0293 22.1V26H51.2653V20.24H49.9693L48.0013 23.276L46.0453 20.24H44.7493V26H45.9853ZM52.5104 23.12C52.5104 25.148 54.0104 26.156 55.7744 26.156C56.5784 26.156 57.3104 26.012 57.8384 25.76V24.656C57.3464 24.896 56.7104 25.064 56.0144 25.064C54.9584 25.064 53.9504 24.632 53.8064 23.6H58.1384C58.5104 21.932 57.7184 20.084 55.4264 20.084C54.0944 20.084 52.5104 21.032 52.5104 23.12ZM56.9864 22.64H53.7944C53.8424 21.668 54.6224 21.152 55.4864 21.152C56.7464 21.152 57.0584 22.136 56.9864 22.64ZM60.5612 21.14V20.24H59.4212V28.64H60.7052V25.256C61.1012 25.712 61.7732 26.156 62.7812 26.156C64.5092 26.156 65.6372 24.776 65.6372 23.12C65.6372 21.464 64.5092 20.084 62.7812 20.084C61.7012 20.084 61.0172 20.588 60.5612 21.14ZM64.3292 23.12C64.3292 24.248 63.5852 25.028 62.5412 25.028C61.6532 25.028 60.9812 24.452 60.7052 23.816V22.412C60.9812 21.788 61.6532 21.212 62.5412 21.212C63.5852 21.212 64.3292 21.992 64.3292 23.12Z" fill="white"/>
<path d="M16.8 21.504H14.56L14.336 5.6H17.024L16.8 21.504ZM16.832 25.536C17.152 25.8133 17.312 26.208 17.312 26.72C17.312 27.232 17.152 27.6267 16.832 27.904C16.512 28.1813 16.128 28.32 15.68 28.32C15.232 28.32 14.848 28.1813 14.528 27.904C14.208 27.6267 14.048 27.232 14.048 26.72C14.048 26.208 14.208 25.8133 14.528 25.536C14.848 25.2587 15.232 25.12 15.68 25.12C16.128 25.12 16.512 25.2587 16.832 25.536Z" fill="white"/>
</svg>
