<svg width="110" height="34" viewBox="0 0 110 34" fill="none" xmlns="http://www.w3.org/2000/svg">
<path d="M0 0H109.5L102 34H0V0Z" fill="#030303"/>
<path d="M19.596 20L21.96 16.688L24.324 20H25.944L22.8 15.668L25.764 11.6H24.144L21.96 14.636L19.776 11.6H18.156L21.108 15.668L17.976 20H19.596ZM27.8299 20L30.9139 16.232V20H32.1979V14.24H31.0939L28.0099 18.008V14.24H26.7259V20H27.8299ZM36.48 20V15.368H38.46V14.24H33.204V15.368H35.196V20H36.48ZM43.5841 20V15.368H46.4641V20H47.7481V14.24H42.3001V20H43.5841ZM50.4948 15.14V14.24H49.3548V22.64H50.6388V19.256C51.0348 19.712 51.7068 20.156 52.7148 20.156C54.4428 20.156 55.5708 18.776 55.5708 17.12C55.5708 15.464 54.4428 14.084 52.7148 14.084C51.6348 14.084 50.9508 14.588 50.4948 15.14ZM54.2628 17.12C54.2628 18.248 53.5188 19.028 52.4748 19.028C51.5868 19.028 50.9148 18.452 50.6388 17.816V16.412C50.9148 15.788 51.5868 15.212 52.4748 15.212C53.5188 15.212 54.2628 15.992 54.2628 17.12ZM56.4596 17.12C56.4596 19.112 57.9716 20.156 59.5796 20.156C61.1996 20.156 62.6996 19.112 62.6996 17.12C62.6996 15.128 61.1996 14.084 59.5796 14.084C57.9716 14.084 56.4596 15.128 56.4596 17.12ZM61.3916 17.12C61.3916 18.248 60.6476 18.98 59.5796 18.98C58.4996 18.98 57.7556 18.248 57.7556 17.12C57.7556 15.992 58.4996 15.26 59.5796 15.26C60.6476 15.26 61.3916 15.992 61.3916 17.12ZM64.5 21.548V20H69.132V21.548H70.344V18.944H69.492V14.24H64.992C65.016 16.244 64.776 17.708 64.08 18.944H63.288V21.548H64.5ZM66.192 15.296H68.196V18.944H65.424C65.904 17.924 66.144 16.844 66.192 15.296ZM76.4229 18.668V16.604C76.4229 14.864 75.3909 14.084 73.7589 14.084C72.8349 14.084 72.0069 14.312 71.5509 14.468V15.644C72.0669 15.416 72.7749 15.2 73.6269 15.2C74.6109 15.2 75.1389 15.704 75.1389 16.424V16.628C74.6829 16.532 74.1309 16.46 73.6389 16.46C72.4389 16.46 71.0709 16.916 71.0709 18.392C71.0709 19.58 72.0429 20.156 73.0869 20.156C73.9869 20.156 74.6949 19.868 75.2589 19.412C75.4629 19.88 75.8829 20.084 76.4109 20.084C76.6989 20.084 76.9869 20.036 77.2269 19.94V19.016C77.1069 19.052 76.9749 19.088 76.8429 19.088C76.6149 19.088 76.4229 18.992 76.4229 18.668ZM73.8909 17.36C74.2989 17.36 74.7909 17.432 75.1389 17.504V18.476C74.6829 18.932 74.0829 19.16 73.4709 19.16C72.8949 19.16 72.3909 18.872 72.3909 18.308C72.3909 17.588 73.1589 17.36 73.8909 17.36ZM86.5826 20L84.4346 17.108L86.3546 14.24H84.9626L83.3906 16.616H82.6586V14.24H81.3746V16.616H80.6546L79.0826 14.24H77.6786L79.6106 17.108L77.4626 20H78.8666L80.5826 17.708H81.3746V20H82.6586V17.708H83.4626L85.1786 20H86.5826Z" fill="white"/>
</svg>
