<svg width="182" height="519" viewBox="0 0 182 519" fill="none" xmlns="http://www.w3.org/2000/svg">
<path fill-rule="evenodd" clip-rule="evenodd" d="M105.131 61.2734C112.209 53.6434 117 39.6363 117 27.0161C117 8.51459 106.703 0 94 0C81.2974 0 71 8.51459 71 27.0161C71 39.6363 75.7912 53.6434 82.8688 61.2734C82.7413 61.3916 82.6425 61.5426 82.5861 61.7154C81.7816 64.1794 78.8705 72.2323 74.8176 73.5C73.2335 73.9955 69.3818 74.7092 64.7414 75.5691L64.7408 75.5692C55.3336 77.3124 42.6852 79.6562 39.117 82C33.7885 85.5 33.2557 88 33.2557 92C33.2557 92.9081 33.455 97.1873 33.7429 103.367V103.368C34.7229 124.408 36.7288 167.473 35.3869 174.5C34.6161 178.536 33.4796 182.043 32.4072 185.352C31.0642 189.497 29.822 193.33 29.5258 197.5C29.4896 198.01 29.4435 198.66 29.389 199.43C28.6408 209.999 26.2925 243.17 25.7958 245.5C25.263 248 25.263 249.5 25.263 250.5C25.263 250.887 25.343 251.5 25.4409 252.25C25.5959 253.437 25.7958 254.969 25.7958 256.5C25.7958 257.604 24.861 261.632 23.8167 266.131L23.8163 266.132C22.4956 271.823 21 278.266 21 280.5C21 283.44 22.7274 286.65 24.0659 289.138L24.0672 289.14C24.5493 290.036 24.9809 290.838 25.263 291.5C25.8591 292.899 28.9576 296.176 31.5716 298.792C32.3535 299.574 33.5826 298.693 33.1128 297.691C31.0419 293.277 28.2571 287.239 27.927 286C27.3942 284 27.9268 282.5 28.4598 281C28.7678 280.133 29.6096 279.099 30.2653 278.381C30.6933 277.912 31.4304 278.011 31.7343 278.568C32.3642 279.724 33.2555 281.53 33.2555 282.5V287.217C33.2555 288.244 34.5693 288.578 35.0296 287.66C36.2 285.327 37.5182 282.39 37.5182 281C37.5182 279.807 36.7901 277.703 36.0289 275.503C35.1949 273.093 34.3212 270.568 34.3212 269C34.3212 266.082 36.3375 249.448 36.4481 248.539C36.4516 248.509 36.449 248.517 36.4552 248.488C36.6536 247.558 48.7168 190.963 49.7737 186.5C50.8394 182 53.5038 132 53.5038 132C53.5038 132 60.4308 170.5 60.4308 186.5C60.4308 194.156 56.4042 205.019 52.2047 216.348C47.6284 228.693 42.8469 241.592 42.8469 251.5C42.8469 270.5 52.5695 309 55 318C55.7803 320.89 56.8327 323.624 57.902 326.403C60.1632 332.28 62.5 338.353 62.5 346.5C62.5 351.274 62.1725 353.753 61.7782 356.738C61.1812 361.258 60.4308 366.94 60.4308 383.5C60.4308 409.864 77.0383 491.375 78.4101 498.063C78.4733 498.371 78.3777 498.639 78.1699 498.875L67.0891 511.446C64.6953 514.162 66.8528 518.407 70.4576 518.074L84.4439 516.782C86.2466 516.616 87.7115 515.265 88.0129 513.48C88.87 508.405 90.5 498.606 90.5 497.5C90.5 496.524 90.3168 496.06 90.1044 495.523C89.9902 495.233 89.8676 494.923 89.7604 494.5L89 491C88.9605 490.818 88.9125 490.615 88.8582 490.393C88.8073 490.185 88.751 489.961 88.691 489.723C88.1985 487.762 87.4601 484.824 87.5 482C88.1422 436.538 89.1292 409.776 89.6005 397.003V397.001C89.7667 392.496 89.8687 389.731 89.8687 388.5C89.8687 385.685 89.2479 379.331 88.642 373.129V373.128C88.0643 367.216 87.5 361.44 87.5 359C87.5 354.099 91.698 320.849 91.8636 319.54C91.8687 319.5 91.8687 319.48 91.8687 319.441V319.437V263C91.8687 262.448 92.3163 262 92.8687 262H94H95.1313C95.6837 262 96.1313 262.448 96.1313 263V319.437C96.1313 319.46 96.1313 319.477 96.1321 319.494C96.1328 319.507 96.1341 319.521 96.1364 319.54C96.302 320.849 100.5 354.099 100.5 359C100.5 361.44 99.9357 367.216 99.358 373.128V373.129C98.7521 379.331 98.1313 385.685 98.1313 388.5C98.1313 389.731 98.2333 392.496 98.3995 397.001V397.003C98.8708 409.776 99.8578 436.538 100.5 482C100.54 484.824 99.8015 487.762 99.309 489.723C99.1849 490.216 99.0765 490.648 99 491L98.2396 494.5C98.1324 494.923 98.0098 495.233 97.8956 495.523C97.6832 496.06 97.5 496.524 97.5 497.5C97.5 498.606 99.13 508.405 99.9871 513.48C100.288 515.265 101.753 516.616 103.556 516.782L117.542 518.074C121.147 518.407 123.305 514.162 120.911 511.446L109.83 498.875C109.622 498.639 109.527 498.371 109.59 498.063C110.962 491.375 127.569 409.864 127.569 383.5C127.569 366.94 126.819 361.258 126.222 356.738C125.827 353.753 125.5 351.274 125.5 346.5C125.5 338.353 127.837 332.28 130.098 326.403C131.167 323.624 132.22 320.89 133 318C135.431 309 145.153 270.5 145.153 251.5C145.153 241.592 140.372 228.693 135.795 216.348C131.596 205.019 127.569 194.156 127.569 186.5C127.569 170.5 134.496 132 134.496 132C134.496 132 137.161 182 138.226 186.5C139.28 190.951 151.283 247.259 151.543 248.48L151.545 248.488C151.551 248.517 151.548 248.509 151.552 248.539C151.662 249.448 153.679 266.082 153.679 269C153.679 270.568 152.805 273.093 151.971 275.503C151.21 277.703 150.482 279.807 150.482 281C150.482 282.39 151.8 285.327 152.97 287.66C153.431 288.578 154.745 288.244 154.745 287.217V282.5C154.745 281.53 155.636 279.724 156.266 278.568C156.57 278.011 157.307 277.912 157.735 278.381C158.39 279.099 159.232 280.133 159.54 281C160.073 282.5 160.606 284 160.073 286C159.743 287.239 156.958 293.277 154.887 297.691C154.417 298.693 155.647 299.574 156.428 298.792C159.042 296.176 162.141 292.899 162.737 291.5C163.019 290.838 163.451 290.036 163.933 289.14L163.934 289.138C165.273 286.65 167 283.44 167 280.5C167 278.266 165.504 271.823 164.184 266.132L164.183 266.131C163.139 261.632 162.204 257.604 162.204 256.5C162.204 254.969 162.404 253.437 162.559 252.25C162.657 251.5 162.737 250.887 162.737 250.5C162.737 249.5 162.737 248 162.204 245.5C161.707 243.17 159.359 209.999 158.611 199.43C158.556 198.66 158.51 198.01 158.474 197.5C158.178 193.33 156.936 189.497 155.593 185.352C154.52 182.043 153.384 178.536 152.613 174.5C151.271 167.473 153.277 124.408 154.257 103.368V103.367C154.545 97.1873 154.744 92.9081 154.744 92C154.744 88 154.211 85.5 148.883 82C145.315 79.6562 132.666 77.3124 123.259 75.5692L123.259 75.5691C118.618 74.7092 114.767 73.9955 113.182 73.5C109.13 72.2323 106.218 64.1794 105.414 61.7154C105.357 61.5426 105.259 61.3916 105.131 61.2734Z" fill="#999999"/>
<path d="M98.0154 236.592H96.1534V239H94.7954V236.592H89.3494V235.612L94.3614 229.2H95.8734L91.0714 235.388H94.8374V233.26H96.1534V235.388H98.0154V236.592Z" fill="white"/>
<path d="M117.08 291.05C117.724 291.05 118.298 291.171 118.802 291.414C119.315 291.657 119.716 292.007 120.006 292.464C120.295 292.912 120.44 293.43 120.44 294.018C120.44 294.634 120.286 295.175 119.978 295.642C119.679 296.109 119.264 296.473 118.732 296.734C118.209 296.986 117.621 297.112 116.968 297.112C115.652 297.112 114.634 296.687 113.916 295.838C113.206 294.989 112.852 293.785 112.852 292.226C112.852 291.134 113.043 290.205 113.426 289.44C113.818 288.665 114.359 288.082 115.05 287.69C115.75 287.289 116.562 287.088 117.486 287.088C117.962 287.088 118.41 287.139 118.83 287.242C119.25 287.335 119.614 287.475 119.922 287.662L119.39 288.754C118.923 288.446 118.298 288.292 117.514 288.292C116.496 288.292 115.698 288.609 115.12 289.244C114.541 289.869 114.252 290.784 114.252 291.988C114.252 292.137 114.256 292.254 114.266 292.338C114.546 291.918 114.928 291.601 115.414 291.386C115.908 291.162 116.464 291.05 117.08 291.05ZM116.912 295.978C117.556 295.978 118.078 295.805 118.48 295.46C118.881 295.115 119.082 294.653 119.082 294.074C119.082 293.495 118.876 293.038 118.466 292.702C118.064 292.357 117.523 292.184 116.842 292.184C116.403 292.184 116.011 292.268 115.666 292.436C115.33 292.604 115.064 292.833 114.868 293.122C114.681 293.411 114.588 293.733 114.588 294.088C114.588 294.433 114.676 294.751 114.854 295.04C115.04 295.32 115.306 295.549 115.652 295.726C116.006 295.894 116.426 295.978 116.912 295.978Z" fill="white"/>
<path d="M93.9181 178.316C94.8795 178.409 95.6121 178.708 96.1161 179.212C96.6201 179.707 96.8721 180.341 96.8721 181.116C96.8721 181.676 96.7321 182.185 96.4521 182.642C96.1721 183.09 95.7521 183.449 95.1921 183.72C94.6415 183.981 93.9648 184.112 93.1621 184.112C92.4621 184.112 91.7901 184.009 91.1461 183.804C90.5021 183.589 89.9748 183.295 89.5641 182.922L90.2081 181.816C90.5441 182.133 90.9735 182.39 91.4961 182.586C92.0188 182.773 92.5741 182.866 93.1621 182.866C93.8901 182.866 94.4548 182.712 94.8561 182.404C95.2668 182.096 95.4721 181.671 95.4721 181.13C95.4721 180.589 95.2715 180.169 94.8701 179.87C94.4688 179.571 93.8621 179.422 93.0501 179.422H92.2661V178.442L94.7301 175.418H90.0121V174.2H96.4801V175.152L93.9181 178.316Z" fill="white"/>
<path d="M97.0405 119.782V121H89.9985V120.048L93.9885 116.198C94.4738 115.731 94.8005 115.33 94.9685 114.994C95.1365 114.649 95.2205 114.303 95.2205 113.958C95.2205 113.445 95.0385 113.048 94.6745 112.768C94.3198 112.479 93.8065 112.334 93.1345 112.334C92.0518 112.334 91.2165 112.689 90.6285 113.398L89.6765 112.572C90.0591 112.105 90.5585 111.741 91.1745 111.48C91.7998 111.219 92.4951 111.088 93.2605 111.088C94.2871 111.088 95.1038 111.335 95.7105 111.83C96.3171 112.315 96.6205 112.978 96.6205 113.818C96.6205 114.341 96.5085 114.835 96.2845 115.302C96.0605 115.769 95.6358 116.301 95.0105 116.898L92.0145 119.782H97.0405Z" fill="white"/>
<path d="M55.6192 48.2V58H54.2332V49.418H52.0212V48.2H55.6192Z" fill="#999999"/>
<path d="M12.9525 169.106C14.3525 169.106 15.3791 169.372 16.0325 169.904C16.6951 170.427 17.0265 171.145 17.0265 172.06C17.0265 172.639 16.8865 173.161 16.6065 173.628C16.3358 174.085 15.9205 174.449 15.3605 174.72C14.8098 174.981 14.1285 175.112 13.3165 175.112C12.6258 175.112 11.9585 175.009 11.3145 174.804C10.6705 174.589 10.1385 174.295 9.71847 173.922L10.3625 172.816C10.6985 173.133 11.1278 173.39 11.6505 173.586C12.1731 173.773 12.7238 173.866 13.3025 173.866C14.0398 173.866 14.6091 173.712 15.0105 173.404C15.4211 173.087 15.6265 172.657 15.6265 172.116C15.6265 171.528 15.4025 171.085 14.9545 170.786C14.5065 170.478 13.7411 170.324 12.6585 170.324H10.4325L10.9505 165.2H16.4805V166.418H12.1265L11.8605 169.106H12.9525Z" fill="#999999"/>
<path d="M168.128 347.2V348.152L164.166 357H162.682L166.56 348.418H162.08V350.168H160.736V347.2H168.128Z" fill="#999999"/>
<path d="M106.314 485.438L105.86 272L109 272L105.841 263.125L103 272L105.86 272L106.314 485.438L103.489 485.438L106.332 494.063L109.492 485.438L106.314 485.438Z" fill="white"/>
<path d="M105.841 263.125L106.332 494.063M105.841 263.125L103 272L109 272L105.841 263.125ZM106.332 494.063L103.489 485.438L109.492 485.438L106.332 494.063Z" stroke="white" stroke-linecap="round" stroke-linejoin="round"/>
<path d="M178.318 485.438L177.856 207.375L181 207.375L177.841 198.5L175 207.375L177.856 207.375L178.318 485.438L175.489 485.438L178.332 494.063L181.492 485.438L178.318 485.438Z" fill="#999999"/>
<path d="M177.841 198.5L178.332 494.063M177.841 198.5L175 207.375L181 207.375L177.841 198.5ZM178.332 494.063L175.489 485.438L181.492 485.438L178.332 494.063Z" stroke="#999999" stroke-linecap="round" stroke-linejoin="round"/>
<path d="M55.5 247.287L132.063 246.887L132.063 250L140.938 246.841L132.063 244L132.063 246.887L55.5 247.287L55.5 244.489L46.8748 247.332L55.5 250.492L55.5 247.287Z" fill="white"/>
<path d="M140.938 246.841L46.8748 247.332M140.938 246.841L132.063 244L132.063 250L140.938 246.841ZM46.8748 247.332L55.5 244.489L55.5 250.492L46.8748 247.332Z" stroke="white" stroke-linecap="round" stroke-linejoin="round"/>
<path d="M70.6252 191.265L116.5 190.91L116.5 194L125.375 190.841L116.5 188L116.5 190.91L70.6252 191.265L70.6252 188.489L62.0001 191.332L70.6252 194.492L70.6252 191.265Z" fill="white"/>
<path d="M125.375 190.841L62.0001 191.332M125.375 190.841L116.5 188L116.5 194L125.375 190.841ZM62.0001 191.332L70.6252 188.489L70.6252 194.492L62.0001 191.332Z" stroke="white" stroke-linecap="round" stroke-linejoin="round"/>
<path d="M63.5001 128.277L123.625 127.897L123.625 131L132.5 127.841L123.625 125L123.625 127.897L63.5001 128.277L63.5001 125.489L54.8749 128.332L63.5001 131.492L63.5001 128.277Z" fill="white"/>
<path d="M132.5 127.841L54.8749 128.332M132.5 127.841L123.625 125L123.625 131L132.5 127.841ZM54.8749 128.332L63.5001 125.489L63.5001 131.492L54.8749 128.332Z" stroke="white" stroke-linecap="round" stroke-linejoin="round"/>
<path d="M41.5001 64.229L65.1252 63.9468L65.1252 67L74 63.8408L65.1252 61L65.1252 63.9468L41.5001 64.229L41.5001 61.4894L32.8749 64.332L41.5001 67.492L41.5001 64.229Z" fill="#999999"/>
<path d="M74 63.8408L32.8749 64.332M74 63.8408L65.1252 61L65.1252 67L74 63.8408ZM32.8749 64.332L41.5001 61.4894L41.5001 67.492L32.8749 64.332Z" stroke="#999999" stroke-linecap="round" stroke-linejoin="round"/>
<path d="M24.5 90L21.1599 82L19 90.5L21.7139 90.2533L27 169L10.6049 250.065L7.5 249.5L8.99998 258L13 250.5L10.6049 250.065L27 169L21.7139 90.2533L24.5 90Z" fill="#999999"/>
<path d="M8.99998 258L13 250.5L7.5 249.5L8.99998 258ZM8.99998 258L27 169L21.1599 82M21.1599 82L24.5 90L19 90.5L21.1599 82Z" stroke="#999999" stroke-linecap="round" stroke-linejoin="round"/>
</svg>
