<svg width="69" height="34" viewBox="0 0 69 34" fill="none" xmlns="http://www.w3.org/2000/svg">
<path d="M0 0H69L64.274 34H0V0Z" fill="#70B356"/>
<path d="M21.388 21V15.768C21.388 15.468 21.388 15.144 21.376 14.856L25.9 21H27.184V12.6H25.816V17.82C25.816 18.132 25.816 18.456 25.828 18.744L21.304 12.6H20.02V21H21.388ZM29.2192 12.6V21H35.0752V19.752H30.5872V17.388H34.6432V16.14H30.5872V13.848H35.0032V12.6H29.2192ZM46.3686 12.6L44.4726 19.392L42.4326 12.6H41.2206L39.1806 19.392L37.2726 12.6H35.7846L38.4006 21H39.9006L41.8206 14.736L43.7406 21H45.2406L47.8686 12.6H46.3686Z" fill="white"/>
</svg>
