<svg width="20" height="22" viewBox="0 0 20 22" fill="none" xmlns="http://www.w3.org/2000/svg">
<path d="M11.6666 4.65595C12.0823 5.07167 12.7564 5.07167 13.1721 4.65595L14.1935 3.63449L14.1935 18.0968C14.1935 18.6847 14.6701 19.1613 15.2581 19.1613C15.846 19.1613 16.3226 18.6847 16.3226 18.0968L16.3226 3.63449L17.344 4.65595C17.7598 5.07167 18.4338 5.07167 18.8495 4.65595C19.2652 4.24023 19.2652 3.56622 18.8495 3.1505L16.0108 0.31179C15.5951 -0.10393 14.9211 -0.10393 14.5053 0.31179L11.6666 3.1505C11.2509 3.56622 11.2509 4.24023 11.6666 4.65595Z" fill="black"/>
<path d="M4.96774 18.3655L5.98921 17.344C6.40493 16.9283 7.07894 16.9283 7.49466 17.344C7.91038 17.7598 7.91038 18.4338 7.49466 18.8495L4.65595 21.6882C4.24023 22.1039 3.56622 22.1039 3.1505 21.6882L0.31179 18.8495C-0.10393 18.4338 -0.10393 17.7598 0.31179 17.344C0.727509 16.9283 1.40152 16.9283 1.81724 17.344L2.83871 18.3655L2.83871 3.90323C2.83871 3.31531 3.31531 2.83871 3.90322 2.83871C4.49114 2.83871 4.96774 3.31531 4.96774 3.90323L4.96774 18.3655Z" fill="black"/>
</svg>
