<svg width="29" height="22" viewBox="0 0 29 22" fill="none" xmlns="http://www.w3.org/2000/svg">
<path fill-rule="evenodd" clip-rule="evenodd" d="M16.465 5.7037H1.22222C0.547208 5.7037 0 5.1565 0 4.48148C0 3.80647 0.547208 3.25926 1.22222 3.25926H16.465C16.997 1.37826 18.7264 0 20.7778 0C22.8291 0 24.5585 1.37826 25.0906 3.25926H27.2963C27.9713 3.25926 28.5185 3.80647 28.5185 4.48148C28.5185 5.1565 27.9713 5.7037 27.2963 5.7037H25.0906C24.5585 7.58471 22.8291 8.96296 20.7778 8.96296C18.7264 8.96296 16.997 7.58471 16.465 5.7037ZM18.7407 4.48148C18.7407 3.35646 19.6528 2.44444 20.7778 2.44444C21.9028 2.44444 22.8148 3.35646 22.8148 4.48148C22.8148 5.60651 21.9028 6.51852 20.7778 6.51852C19.6528 6.51852 18.7407 5.60651 18.7407 4.48148Z" fill="black"/>
<path fill-rule="evenodd" clip-rule="evenodd" d="M12.0535 18.7407H27.2963C27.9713 18.7407 28.5185 18.1935 28.5185 17.5185C28.5185 16.8435 27.9713 16.2963 27.2963 16.2963H12.0535C11.5215 14.4153 9.79208 13.037 7.74074 13.037C5.6894 13.037 3.95997 14.4153 3.42795 16.2963H1.22222C0.547208 16.2963 0 16.8435 0 17.5185C0 18.1935 0.547208 18.7407 1.22222 18.7407H3.42795C3.95997 20.6217 5.6894 22 7.74074 22C9.79208 22 11.5215 20.6217 12.0535 18.7407ZM5.7037 17.5185C5.7037 16.3935 6.61572 15.4815 7.74074 15.4815C8.86577 15.4815 9.77778 16.3935 9.77778 17.5185C9.77778 18.6435 8.86577 19.5556 7.74074 19.5556C6.61572 19.5556 5.7037 18.6435 5.7037 17.5185Z" fill="black"/>
</svg>
